# xmcd
#
# Track frame offsets: 
#        150
#        15992
#        36282
#
# Disc length: 703 seconds
#
# Revision: 2
# Processed by: cddbd v1.5.2PL0 Copyright (c) Steve Scherf et al.
# Submitted via: ExactAudioCopy v1.3
#
DISCID=1702bd03
DTITLE=Steppenwolf - Born To Be Wild
DYEAR=1999
DGENRE=Rock
TTITLE0=Born To Be Wild
TTITLE1=Magic Carpet Ride
TTITLE2=Rock Me
EXTD=
EXTT0=
EXTT1=
EXTT2=
PLAYORDER=
